<?xml version="1.0" encoding="UTF-8" standalone="no"?>
<svg
   width="750"
   height="220"
   viewBox="0 0 750 220"
   fill="none"
   version="1.1"
   id="svg28"
   sodipodi:docname="bono-arm-api-settings-banner.svg"
   inkscape:version="1.3.2 (091e20e, 2023-11-25)"
   xmlns:inkscape="http://www.inkscape.org/namespaces/inkscape"
   xmlns:sodipodi="http://sodipodi.sourceforge.net/DTD/sodipodi-0.dtd"
   xmlns="http://www.w3.org/2000/svg"
   xmlns:svg="http://www.w3.org/2000/svg">
  <sodipodi:namedview
     id="namedview28"
     pagecolor="#ffffff"
     bordercolor="#666666"
     borderopacity="1.0"
     inkscape:showpageshadow="2"
     inkscape:pageopacity="0.0"
     inkscape:pagecheckerboard="0"
     inkscape:deskcolor="#d1d1d1"
     inkscape:zoom="0.86033873"
     inkscape:cx="361.48553"
     inkscape:cy="244.67107"
     inkscape:window-width="1736"
     inkscape:window-height="1102"
     inkscape:window-x="0"
     inkscape:window-y="39"
     inkscape:window-maximized="0"
     inkscape:current-layer="svg28" />
  <defs
     id="defs9">
    <linearGradient
       id="bg"
       x1="40"
       y1="20"
       x2="710"
       y2="200"
       gradientUnits="userSpaceOnUse">
      <stop
         stop-color="#FAF4EE"
         id="stop1" />
      <stop
         offset="0.5"
         stop-color="#F4F7FB"
         id="stop2" />
      <stop
         offset="1"
         stop-color="#EEF5F2"
         id="stop3" />
    </linearGradient>
    <linearGradient
       id="panel"
       x1="46"
       y1="28"
       x2="704"
       y2="194"
       gradientUnits="userSpaceOnUse">
      <stop
         stop-color="#FFFDFB"
         stop-opacity="0.96"
         id="stop4" />
      <stop
         offset="1"
         stop-color="#FFFFFF"
         stop-opacity="0.9"
         id="stop5" />
    </linearGradient>
    <linearGradient
       id="hero"
       x1="500"
       y1="48"
       x2="664"
       y2="176"
       gradientUnits="userSpaceOnUse">
      <stop
         stop-color="#FF7A59"
         id="stop6" />
      <stop
         offset="1"
         stop-color="#0F7AC9"
         id="stop7" />
    </linearGradient>
    <filter
       id="shadow"
       x="20"
       y="12"
       width="710"
       height="196"
       filterUnits="userSpaceOnUse"
       color-interpolation-filters="sRGB">
      <feFlood
         flood-opacity="0"
         result="BackgroundImageFix"
         id="feFlood7" />
      <feColorMatrix
         in="SourceAlpha"
         type="matrix"
         values="0 0 0 0 0 0 0 0 0 0 0 0 0 0 0 0 0 0 127 0"
         result="hardAlpha"
         id="feColorMatrix7" />
      <feOffset
         dy="10"
         id="feOffset7" />
      <feGaussianBlur
         stdDeviation="12"
         id="feGaussianBlur7" />
      <feColorMatrix
         type="matrix"
         values="0 0 0 0 0.0745098 0 0 0 0 0.109804 0 0 0 0 0.180392 0 0 0 0.12 0"
         id="feColorMatrix8" />
      <feBlend
         mode="normal"
         in2="BackgroundImageFix"
         result="effect1_dropShadow_1_1"
         id="feBlend8" />
      <feBlend
         mode="normal"
         in="SourceGraphic"
         in2="effect1_dropShadow_1_1"
         result="shape"
         id="feBlend9" />
    </filter>
  </defs>
  <rect
     width="750"
     height="220"
     fill="url(#bg)"
     id="rect9" />
  <circle
     cx="72"
     cy="40"
     r="110"
     fill="#FF7A59"
     fill-opacity="0.08"
     id="circle9" />
  <circle
     cx="674"
     cy="188"
     r="120"
     fill="#0F7AC9"
     fill-opacity="0.08"
     id="circle10" />
  <g
     filter="url(#shadow)"
     id="g11">
    <rect
       x="34"
       y="24"
       width="682"
       height="172"
       rx="22"
       fill="url(#panel)"
       id="rect10" />
    <rect
       x="34.75"
       y="24.75"
       width="680.5"
       height="170.5"
       rx="21.25"
       stroke="#E7E3DD"
       stroke-width="1.5"
       id="rect11" />
  </g>
  <text
     x="66"
     y="112"
     fill="#111827"
     font-size="40px"
     font-weight="800"
     id="text13"
     style="font-weight:800;font-size:40px;fill:#111827"><tspan
       style="font-style:normal;font-variant:normal;font-weight:bold;font-stretch:normal;font-size:40px;font-family:Futura;-inkscape-font-specification:'Futura, Bold';font-variant-ligatures:normal;font-variant-caps:normal;font-variant-numeric:normal;font-variant-east-asian:normal"
       id="tspan28">Bono ARM API</tspan></text>
  <text
     x="66"
     y="142"
     fill="#334155"
     font-size="18"
     font-weight="600"
     id="text14">Protected ARMember transactions endpoint</text>
  <rect
     x="66"
     y="178"
     width="118"
     height="24"
     rx="12"
     fill="#DCEEFE"
     id="rect15" />
  <text
     x="125"
     y="194"
     text-anchor="middle"
     fill="#0F5E9C"
     font-size="12"
     font-weight="700"
     id="text16">REST API</text>
  <rect
     x="194"
     y="178"
     width="132"
     height="24"
     rx="12"
     fill="#DCF4E9"
     id="rect16" />
  <text
     x="260"
     y="194"
     text-anchor="middle"
     fill="#0F766E"
     font-size="12"
     font-weight="700"
     id="text17">Admin Auth</text>
  <text
     x="69.933479"
     y="57.156082"
     fill="#64748b"
     font-size="13px"
     font-weight="600"
     id="text18">renatobo/bono_arm_api</text>
  <rect
     x="488"
     y="48"
     width="186"
     height="120"
     rx="24"
     fill="url(#hero)"
     id="rect18"
     style="fill:url(#hero)" />
  <rect
     x="510"
     y="70"
     width="142"
     height="76"
     rx="18"
     fill="#f8fafc"
     fill-opacity="0.94"
     id="rect19" />
  <rect
     x="510"
     y="70"
     width="142"
     height="24"
     rx="18"
     fill="#111827"
     id="rect20" />
  <circle
     cx="530"
     cy="82"
     r="4"
     fill="#ff7a59"
     id="circle20" />
  <circle
     cx="546"
     cy="82"
     r="4"
     fill="#fdba74"
     id="circle21" />
  <circle
     cx="562"
     cy="82"
     r="4"
     fill="#34d399"
     id="circle22" />
  <g
     id="rect22">
    <path
       style="color:#000000;fill:#dceefe;-inkscape-stroke:none"
       d="m 534,104 h 22 c 3.324,0 6,2.676 6,6 0,3.324 -2.676,6 -6,6 h -22 c -3.324,0 -6,-2.676 -6,-6 0,-3.324 2.676,-6 6,-6 z"
       id="path28" />
    <path
       style="color:#000000;fill:#999999;-inkscape-stroke:none"
       d="m 534,103.5 c -3.59235,0 -6.5,2.90765 -6.5,6.5 0,3.59235 2.90765,6.5 6.5,6.5 h 22 c 3.59235,0 6.5,-2.90765 6.5,-6.5 0,-3.59235 -2.90765,-6.5 -6.5,-6.5 z m 0,1 h 22 c 3.05565,0 5.5,2.44435 5.5,5.5 0,3.05565 -2.44435,5.5 -5.5,5.5 h -22 c -3.05565,0 -5.5,-2.44435 -5.5,-5.5 0,-3.05565 2.44435,-5.5 5.5,-5.5 z"
       id="path29" />
  </g>
  <g
     id="rect23">
    <path
       style="color:#000000;fill:#ffe4db;-inkscape-stroke:none"
       d="m 574,104 h 22 c 3.324,0 6,2.676 6,6 0,3.324 -2.676,6 -6,6 h -22 c -3.324,0 -6,-2.676 -6,-6 0,-3.324 2.676,-6 6,-6 z"
       id="path30" />
    <path
       style="color:#000000;fill:#999999;-inkscape-stroke:none"
       d="m 574,103.5 c -3.59235,0 -6.5,2.90765 -6.5,6.5 0,3.59235 2.90765,6.5 6.5,6.5 h 22 c 3.59235,0 6.5,-2.90765 6.5,-6.5 0,-3.59235 -2.90765,-6.5 -6.5,-6.5 z m 0,1 h 22 c 3.05565,0 5.5,2.44435 5.5,5.5 0,3.05565 -2.44435,5.5 -5.5,5.5 h -22 c -3.05565,0 -5.5,-2.44435 -5.5,-5.5 0,-3.05565 2.44435,-5.5 5.5,-5.5 z"
       id="path31" />
  </g>
  <g
     id="rect24">
    <path
       style="color:#000000;fill:#dcf4e9;-inkscape-stroke:none"
       d="m 614,104 h 12 c 3.324,0 6,2.676 6,6 0,3.324 -2.676,6 -6,6 h -12 c -3.324,0 -6,-2.676 -6,-6 0,-3.324 2.676,-6 6,-6 z"
       id="path32" />
    <path
       style="color:#000000;fill:#999999;-inkscape-stroke:none"
       d="m 614,103.5 c -3.59235,0 -6.5,2.90765 -6.5,6.5 0,3.59235 2.90765,6.5 6.5,6.5 h 12 c 3.59235,0 6.5,-2.90765 6.5,-6.5 0,-3.59235 -2.90765,-6.5 -6.5,-6.5 z m 0,1 h 12 c 3.05565,0 5.5,2.44435 5.5,5.5 0,3.05565 -2.44435,5.5 -5.5,5.5 h -12 c -3.05565,0 -5.5,-2.44435 -5.5,-5.5 0,-3.05565 2.44435,-5.5 5.5,-5.5 z"
       id="path33" />
  </g>
  <g
     id="rect25">
    <path
       style="color:#000000;fill:#cbd5e1;-inkscape-stroke:none"
       d="m 533,124 h 94 c 2.77,0 5,2.23 5,5 0,2.77 -2.23,5 -5,5 h -94 c -2.77,0 -5,-2.23 -5,-5 0,-2.77 2.23,-5 5,-5 z"
       id="path34" />
    <path
       style="color:#000000;fill:#999999;-inkscape-stroke:none"
       d="m 533,123.5 c -3.03835,0 -5.5,2.46165 -5.5,5.5 0,3.03835 2.46165,5.5 5.5,5.5 h 94 c 3.03835,0 5.5,-2.46165 5.5,-5.5 0,-3.03835 -2.46165,-5.5 -5.5,-5.5 z m 0,1 h 94 c 2.50165,0 4.5,1.99835 4.5,4.5 0,2.50165 -1.99835,4.5 -4.5,4.5 h -94 c -2.50165,0 -4.5,-1.99835 -4.5,-4.5 0,-2.50165 1.99835,-4.5 4.5,-4.5 z"
       id="path35" />
  </g>
  <g
     id="rect26">
    <path
       style="color:#000000;fill:#e2e8f0;-inkscape-stroke:none"
       d="m 533,140 h 64 c 2.77,0 5,2.23 5,5 0,2.77 -2.23,5 -5,5 h -64 c -2.77,0 -5,-2.23 -5,-5 0,-2.77 2.23,-5 5,-5 z"
       id="path36" />
    <path
       style="color:#000000;fill:#999999;-inkscape-stroke:none"
       d="m 533,139.5 c -3.03835,0 -5.5,2.46165 -5.5,5.5 0,3.03835 2.46165,5.5 5.5,5.5 h 64 c 3.03835,0 5.5,-2.46165 5.5,-5.5 0,-3.03835 -2.46165,-5.5 -5.5,-5.5 z m 0,1 h 64 c 2.50165,0 4.5,1.99835 4.5,4.5 0,2.50165 -1.99835,4.5 -4.5,4.5 h -64 c -2.50165,0 -4.5,-1.99835 -4.5,-4.5 0,-2.50165 1.99835,-4.5 4.5,-4.5 z"
       id="path37" />
  </g>
  <rect
     x="520"
     y="176"
     width="76"
     height="22"
     rx="11"
     fill="#ffe4db"
     id="rect27" />
  <text
     x="558"
     y="191"
     text-anchor="middle"
     fill="#c2410c"
     font-size="11px"
     font-weight="700"
     id="text27">GET</text>
  <rect
     x="604"
     y="176"
     width="92"
     height="22"
     rx="11"
     fill="#dceefe"
     id="rect28" />
  <text
     x="650"
     y="191"
     text-anchor="middle"
     fill="#0f5e9c"
     font-size="11px"
     font-weight="700"
     id="text28">FILTERED</text>
</svg>
